<svg xmlns="http://www.w3.org/2000/svg" viewBox="0 0 814 1000" fill="currentColor">
  <path d="M788.1 340.9c-5.8 4.5-108.2 62.2-108.2 190.5 0 148.4 130.3 200.9 134.2 202.2-.6 3.2-20.7 71.9-68.7 141.9-42.8 61.6-87.5 123.1-155.5 123.1s-85.5-39.5-164-39.5c-76 0-103.7 40.8-165.9 40.8s-105-37.5-155.5-127.4C46 790.7 0 663 0 541.8c0-207.1 135.4-316.6 268.9-316.6 71 0 130.1 46.9 174.9 46.9 42.8 0 110.7-50.7 190.3-50.7 30.6 0 108.2 2.6 155.5 64.2zm-209.5-187.9c31.2-36.9 53.3-88.1 53.3-139.3 0-7.1-.6-14.3-1.9-20.1-50.6 1.9-110.8 33.7-147.2 75.8-28.5 32.4-55.1 83.6-55.1 135.5 0 7.8 1.3 15.6 1.9 18.1 3.2.6 8.4 1.3 13.6 1.3 45.4 0 102.5-30.4 135.4-71.3z"></path>
</svg>